<?xml version="1.0" standalone="no"?><!DOCTYPE svg PUBLIC "-//W3C//DTD SVG 1.1//EN" "http://www.w3.org/Graphics/SVG/1.1/DTD/svg11.dtd"><svg t="1786500608721" class="icon" viewBox="0 0 1024 1024" version="1.1" xmlns="http://www.w3.org/2000/svg" p-id="15422" xmlns:xlink="http://www.w3.org/1999/xlink" width="200" height="200"><path d="M395.53 418a30.07 30.07 0 0 1-4.46-5.71 142.84 142.84 0 0 0-24.36 79.88c0 78.73 64.08 142.81 142.8 142.81a141.51 141.51 0 0 0 79.26-24.1 23.73 23.73 0 0 1-2.85-2.5z m113.89-68.63a141.76 141.76 0 0 0-78.72 23.74 27.83 27.83 0 0 1 5.45 4.28l190.38 190.39c0.8 0.81 1.6 1.7 2.32 2.59a142.72 142.72 0 0 0-119.43-221z" p-id="15423" fill="#75f97e"></path><path d="M767.19 209.69c-39-3.39-77.92-11.87-113.53-27.13a521.88 521.88 0 0 1-120.32-55.87 1.66 1.66 0 0 1-1.69-1.7h-3.39c-10.18-5.09-22.05-5.09-32.22 1.7l-3.4 1.69a784 784 0 0 1-122 55.87C335 196.13 296.11 204.6 257.1 209.69h-1.7c-18.65 1.7-32.22 17-32.22 35.61v335.51c0 135.58 255.9 282.94 288 282.94 30.52 0 288-147.45 288-282.94V245.22a35 35 0 0 0-32-35.53zM650.8 633.56a199.86 199.86 0 1 1 58.64-141.38 198.5 198.5 0 0 1-58.64 141.38z" p-id="15424" fill="#75f97e"></path></svg>